<svg xmlns="http://www.w3.org/2000/svg" viewBox="0 0 32 32"><defs><style>.cls-1{fill:#fff;}</style></defs><g id="Слой_2" data-name="Слой 2"><g id="Слой_1-2" data-name="Слой 1"><rect width="32" height="32" rx="16"/><path class="cls-1" d="M6.17,12.45v2.93h4.38v1H6.17v4.18H5V11.41h6.15v1Z"/><path class="cls-1" d="M16.37,16.7H13.49v3.89H12.32V11.41h3.79a2.51,2.51,0,0,1,2.83,2.7A2.47,2.47,0,0,1,16.37,16.7Zm-.44-4.25H13.49v3.22h2.44a1.62,1.62,0,1,0,0-3.22Z"/><path class="cls-1" d="M23.41,20.81c-2.16,0-3.62-1-3.62-3.21H20.9c0,1.31.85,2.18,2.59,2.18,1.58,0,2.34-.59,2.34-1.6,0-.71-.53-1.18-1.69-1.48l-2.27-.61A2.06,2.06,0,0,1,20.07,14c0-1.67,1.24-2.77,3.26-2.77s3.36,1,3.36,2.84H25.58c0-1.19-.83-1.86-2.29-1.86-1.24,0-2.05.69-2.05,1.62,0,.71.4,1.07,1.51,1.36l2.3.62A2.34,2.34,0,0,1,27,18.07C27,19.71,25.74,20.81,23.41,20.81Z"/></g></g></svg>